<?xml version="1.0" standalone="no"?>
<!DOCTYPE svg PUBLIC "-//W3C//DTD SVG 20010904//EN"
 "http://www.w3.org/TR/2001/REC-SVG-20010904/DTD/svg10.dtd">
<svg version="1.0" xmlns="http://www.w3.org/2000/svg"
 width="500.000000pt" height="500.000000pt" viewBox="0 0 500.000000 500.000000"
 preserveAspectRatio="xMidYMid meet">

<g transform="translate(0.000000,500.000000) scale(0.100000,-0.100000)"
fill="#000000" stroke="none">
<path d="M2395 4134 c-404 -39 -731 -187 -1012 -457 -282 -272 -448 -592 -503
-972 -13 -93 -13 -338 1 -428 18 -119 65 -297 101 -388 43 -105 142 -279 216
-379 204 -275 523 -498 842 -590 174 -50 272 -63 450 -64 315 0 559 67 825
225 260 155 449 347 597 609 85 150 135 276 170 430 61 269 61 484 -1 747
-152 644 -687 1143 -1339 1249 -90 14 -282 24 -347 18z m263 -214 c519 -65
979 -427 1170 -920 29 -74 68 -237 83 -339 20 -144 7 -341 -35 -506 -67 -270
-177 -466 -370 -663 -176 -180 -382 -308 -596 -370 -161 -46 -204 -54 -358
-59 -172 -7 -282 6 -445 53 -401 115 -743 418 -916 812 -48 109 -97 304 -112
444 -25 228 31 527 138 741 73 147 164 274 278 389 269 272 614 422 985 427
53 0 133 -4 178 -9z"/>
<path d="M2376 3759 c-327 -34 -643 -208 -848 -464 -309 -389 -372 -877 -172
-1332 86 -195 263 -403 457 -535 115 -78 313 -158 467 -189 95 -19 357 -16
449 5 328 74 576 233 777 499 160 212 247 479 247 757 0 283 -96 551 -279 783
-216 274 -528 444 -873 477 -116 11 -112 11 -225 -1z m153 -244 c16 -8 31 -22
35 -30 3 -9 6 -68 6 -130 0 -105 -2 -116 -22 -135 -26 -24 -65 -26 -96 -4 -21
14 -22 22 -22 143 0 140 5 154 68 170 2 1 16 -6 31 -14z m-368 -87 c26 -28
117 -172 121 -190 10 -50 -44 -98 -92 -83 -28 9 -150 196 -150 230 0 59 81 87
121 43z m775 -4 c34 -33 28 -52 -42 -160 -58 -87 -85 -114 -117 -114 -25 0
-67 44 -67 71 0 22 102 195 129 217 25 20 70 14 97 -14z m-706 -414 c0 -5 22
-132 50 -282 80 -440 100 -560 95 -568 -6 -10 -96 -63 -99 -58 -19 25 -416
839 -416 851 0 10 11 29 25 42 24 24 28 25 185 25 95 0 160 -4 160 -10z m877
-12 c13 -12 23 -32 23 -46 0 -26 -408 -855 -418 -850 -42 19 -92 56 -92 68 0
8 32 203 72 432 l73 418 159 0 c150 0 161 -1 183 -22z m-1246 -499 c14 -14 19
-30 17 -57 -5 -57 -25 -63 -221 -60 -188 3 -197 7 -197 74 0 58 21 64 212 64
156 0 169 -1 189 -21z m1656 -1 c29 -27 30 -69 2 -94 -19 -17 -40 -19 -188
-22 -158 -3 -168 -2 -194 18 -33 26 -36 71 -7 100 18 18 33 20 192 20 163 0
173 -1 195 -22z m-1553 -274 c21 -21 30 -61 20 -85 -14 -29 -233 -170 -275
-176 -45 -6 -79 22 -79 65 0 44 9 51 195 167 80 50 112 56 139 29z m1174 -11
c94 -53 213 -136 222 -153 16 -29 12 -49 -15 -75 -42 -43 -52 -39 -215 63 -92
58 -130 97 -130 132 0 19 48 60 70 60 12 0 42 -12 68 -27z m-570 -218 c66 -20
109 -57 138 -120 45 -96 24 -196 -57 -269 -51 -46 -81 -56 -163 -56 -101 1
-182 65 -212 167 -18 62 -12 109 24 176 29 55 57 78 122 100 57 20 84 21 148
2z"/>
</g>
</svg>
