<?xml version="1.0" encoding="UTF-8"?>
<svg version="1.1" xmlns="http://www.w3.org/2000/svg" width="500" height="500">
<path d="M0 0 C165 0 330 0 500 0 C500 165 500 330 500 500 C335 500 170 500 0 500 C0 335 0 170 0 0 Z " fill="#FEFEFE" transform="translate(0,0)"/>
<path d="M0 0 C0.87785156 0.67417969 1.75570313 1.34835938 2.66015625 2.04296875 C19.91369442 15.67202264 33.27714255 31.88878174 44 51 C44.52787109 51.92232422 44.52787109 51.92232422 45.06640625 52.86328125 C64.10138715 86.22717766 68.72448513 124.49067416 62 162 C61.87141602 162.76376953 61.74283203 163.52753906 61.61035156 164.31445312 C56.98929089 191.19421063 43.57893098 216.36758588 26 237 C25.08734375 238.10408203 25.08734375 238.10408203 24.15625 239.23046875 C-3.48704991 272.30370257 -45.07995757 290.46945299 -87.22705078 294.76123047 C-94.17097361 295.35914881 -101.04440649 295.3787621 -108 295 C-108.70334473 294.96277832 -109.40668945 294.92555664 -110.13134766 294.88720703 C-140.30156833 293.00630494 -167.19695882 281.76184815 -192 265 C-192.62841797 264.57638184 -193.25683594 264.15276367 -193.90429688 263.71630859 C-224.98121762 242.3309018 -247.35585223 207.37922493 -256.6875 171.125 C-256.89012451 170.34737305 -257.09274902 169.56974609 -257.30151367 168.76855469 C-260.5024535 155.71908285 -261.40890506 142.6854102 -261.375 129.3125 C-261.37512085 128.57253784 -261.3752417 127.83257568 -261.37536621 127.07019043 C-261.34737384 114.9833458 -260.22336262 103.67265146 -257 92 C-256.68804687 90.75089844 -256.37609375 89.50179687 -256.0546875 88.21484375 C-250.76944858 68.16202551 -241.41096516 49.56252041 -229 33 C-228.3503125 32.12601562 -227.700625 31.25203125 -227.03125 30.3515625 C-199.00145212 -5.54814017 -159.98032346 -26.40524162 -115.375 -33.3125 C-74.46679797 -37.91243975 -32.32263409 -25.33661576 0 0 Z " fill="#0F1418" transform="translate(348,120)"/>
<path d="M0 0 C0.87785156 0.67417969 1.75570313 1.34835938 2.66015625 2.04296875 C19.91369442 15.67202264 33.27714255 31.88878174 44 51 C44.52787109 51.92232422 44.52787109 51.92232422 45.06640625 52.86328125 C64.10138715 86.22717766 68.72448513 124.49067416 62 162 C61.87141602 162.76376953 61.74283203 163.52753906 61.61035156 164.31445312 C56.98929089 191.19421063 43.57893098 216.36758588 26 237 C25.08734375 238.10408203 25.08734375 238.10408203 24.15625 239.23046875 C-3.48704991 272.30370257 -45.07995757 290.46945299 -87.22705078 294.76123047 C-94.17097361 295.35914881 -101.04440649 295.3787621 -108 295 C-108.70334473 294.96277832 -109.40668945 294.92555664 -110.13134766 294.88720703 C-140.30156833 293.00630494 -167.19695882 281.76184815 -192 265 C-192.62841797 264.57638184 -193.25683594 264.15276367 -193.90429688 263.71630859 C-224.98121762 242.3309018 -247.35585223 207.37922493 -256.6875 171.125 C-256.89012451 170.34737305 -257.09274902 169.56974609 -257.30151367 168.76855469 C-260.5024535 155.71908285 -261.40890506 142.6854102 -261.375 129.3125 C-261.37512085 128.57253784 -261.3752417 127.83257568 -261.37536621 127.07019043 C-261.34737384 114.9833458 -260.22336262 103.67265146 -257 92 C-256.68804687 90.75089844 -256.37609375 89.50179687 -256.0546875 88.21484375 C-250.76944858 68.16202551 -241.41096516 49.56252041 -229 33 C-228.3503125 32.12601562 -227.700625 31.25203125 -227.03125 30.3515625 C-199.00145212 -5.54814017 -159.98032346 -26.40524162 -115.375 -33.3125 C-74.46679797 -37.91243975 -32.32263409 -25.33661576 0 0 Z M-125 -11 C-125.78342773 -10.82758789 -126.56685547 -10.65517578 -127.37402344 -10.47753906 C-150.87256664 -5.13974988 -175.08852764 5.29580238 -192 23 C-193.3188653 24.24519052 -194.6422603 25.4855911 -195.96875 26.72265625 C-222.60616961 52.01305828 -239.80763847 86.88774728 -241 124 C-241.0515625 125.09699219 -241.103125 126.19398438 -241.15625 127.32421875 C-242.03539543 161.20794901 -230.02800211 193.06579026 -210 220 C-209.48308594 220.74636719 -208.96617187 221.49273437 -208.43359375 222.26171875 C-207.96050781 222.83535156 -207.48742187 223.40898437 -207 224 C-206.34 224 -205.68 224 -205 224 C-204.78859375 224.53367187 -204.5771875 225.06734375 -204.359375 225.6171875 C-192.20254489 246.92657361 -160.68629997 262.36021062 -138.1953125 268.66015625 C-115.2347808 274.86453136 -90.2980058 277.18926296 -67 271 C-66.13391113 270.77957031 -65.26782227 270.55914062 -64.37548828 270.33203125 C-28.03867121 260.88708241 3.69064224 237.98359906 23.2578125 205.73046875 C42.90741942 172.21883538 49.78361141 132.88719715 40 95 C39.82339844 94.29520508 39.64679688 93.59041016 39.46484375 92.86425781 C33.61578186 70.19372718 21.06148787 47.18653977 4 31 C3.48179687 30.46117187 2.96359375 29.92234375 2.4296875 29.3671875 C0.99155799 27.87347811 -0.50088194 26.43249059 -2 25 C-2.66 25 -3.32 25 -4 25 C-4.19980469 24.43796875 -4.39960938 23.8759375 -4.60546875 23.296875 C-6.54503985 20.10228731 -9.28662876 18.32620445 -12.3125 16.25 C-12.93987061 15.81316895 -13.56724121 15.37633789 -14.21362305 14.92626953 C-46.55598342 -7.38861779 -85.55667532 -19.7746489 -125 -11 Z " fill="#111519" transform="translate(348,120)"/>
<path d="M0 0 C1.21623047 1.10601562 1.21623047 1.10601562 2.45703125 2.234375 C2.45703125 2.894375 2.45703125 3.554375 2.45703125 4.234375 C3.04613281 4.48574219 3.63523437 4.73710937 4.2421875 4.99609375 C6.73347327 6.38892901 8.08003539 7.8552322 9.89453125 10.046875 C11.87587878 12.39498261 13.81641317 14.58499151 16.01953125 16.734375 C31.04449877 32.1445981 41.13141774 53.58272743 46.45703125 74.234375 C46.65458008 74.99395508 46.85212891 75.75353516 47.05566406 76.53613281 C52.22108965 97.25701351 52.53501942 119.46664193 47.45703125 140.234375 C47.2854248 140.98976563 47.11381836 141.74515625 46.93701172 142.5234375 C42.82664927 160.5664226 35.91206762 175.97853859 25.45703125 191.234375 C24.88428467 192.07564941 24.31153809 192.91692383 23.72143555 193.78369141 C18.77958394 200.82603245 13.24531943 206.93246422 7.14453125 212.984375 C6.27119141 213.87769531 5.39785156 214.77101563 4.49804688 215.69140625 C-1.37313234 221.55826525 -7.42286168 226.0094963 -14.54296875 230.234375 C-16.31808946 231.39450786 -18.08943406 232.56045708 -19.85546875 233.734375 C-30.0628825 240.13902677 -40.01526063 244.63311712 -51.54296875 248.046875 C-52.51516357 248.33691406 -53.4873584 248.62695312 -54.48901367 248.92578125 C-77.84226044 255.52861638 -104.16471667 255.86628848 -127.54296875 249.234375 C-128.30996094 249.02006836 -129.07695312 248.80576172 -129.8671875 248.58496094 C-145.83631943 243.99082625 -160.00133581 236.84456612 -173.54296875 227.234375 C-174.43113281 226.64398438 -175.31929687 226.05359375 -176.234375 225.4453125 C-182.10972567 221.42578584 -187.19362527 216.86313994 -192.23046875 211.859375 C-192.85550293 211.23981934 -193.48053711 210.62026367 -194.12451172 209.98193359 C-198.54296875 205.49167199 -198.54296875 205.49167199 -198.54296875 203.234375 C-199.20296875 203.234375 -199.86296875 203.234375 -200.54296875 203.234375 C-224.4739035 176.71267788 -236.20710157 138.49982796 -234.54296875 103.234375 C-233.38440168 83.98853143 -229.18742615 65.50431184 -220.54296875 48.234375 C-220.00929688 47.14125 -219.475625 46.048125 -218.92578125 44.921875 C-210.72986641 28.92219436 -200.34351971 16.28304555 -187.33447266 3.95654297 C-185.89237241 2.57025582 -184.50492197 1.12723745 -183.13671875 -0.33203125 C-131.77282256 -48.52436156 -52.15249888 -41.64882401 0 0 Z M-164.54296875 6.234375 C-165.13432617 6.68409668 -165.72568359 7.13381836 -166.33496094 7.59716797 C-175.98184901 14.94049899 -184.22906148 22.5593316 -191.54296875 32.234375 C-192.32027344 33.23726562 -193.09757812 34.24015625 -193.8984375 35.2734375 C-214.35015901 63.08214661 -221.46677232 98.04639578 -216.48828125 131.94921875 C-209.80536998 165.24299957 -191.01576011 195.20868265 -163.54296875 215.234375 C-154.18840272 221.44427423 -143.99094323 226.18438727 -133.54296875 230.234375 C-132.57230469 230.61335937 -131.60164063 230.99234375 -130.6015625 231.3828125 C-100.13627849 242.40834385 -66.56754634 238.31537202 -37.55078125 225.01171875 C-26.99305888 219.88446977 -18.01303962 213.40522995 -9.21069336 205.6784668 C-7.65463934 204.33107117 -6.04562111 203.04552612 -4.43359375 201.765625 C-1.20722197 198.94036972 1.30677134 195.94654516 3.89453125 192.546875 C4.61056519 191.61560791 4.61056519 191.61560791 5.34106445 190.66552734 C6.72110349 188.86109422 8.08944615 187.04825218 9.45703125 185.234375 C10.111875 184.38488281 10.76671875 183.53539062 11.44140625 182.66015625 C25.61813113 163.50857149 33.20972487 138.89539897 34.45703125 115.234375 C34.50988281 114.32429687 34.56273437 113.41421875 34.6171875 112.4765625 C35.52403129 81.64387349 24.07732902 51.7167327 4.45703125 28.234375 C4.01133789 27.69232422 3.56564453 27.15027344 3.10644531 26.59179688 C-13.15475999 7.03919636 -33.66399545 -4.83800726 -57.54296875 -12.765625 C-58.26371582 -13.00861328 -58.98446289 -13.25160156 -59.72705078 -13.50195312 C-70.21394227 -16.86780572 -80.80819185 -17.14514595 -91.73046875 -17.203125 C-92.4017984 -17.20957031 -93.07312805 -17.21601562 -93.76480103 -17.22265625 C-118.64152794 -17.36869687 -144.87322681 -9.28673405 -164.54296875 6.234375 Z " fill="#FBFBFB" transform="translate(341.54296875,140.765625)"/>
<path d="M0 0 C1.05692047 0.00636726 1.05692047 0.00636726 2.13519287 0.01286316 C4.37698212 0.02960337 6.61785931 0.06724471 8.859375 0.10546875 C10.38279948 0.12052171 11.90623811 0.13420905 13.4296875 0.14648438 C17.15654441 0.17949084 20.88287063 0.23124021 24.609375 0.29296875 C28.63387903 20.98613931 32.59558777 41.69082233 36.20114136 62.46170044 C36.51435545 64.26238195 36.830365 66.0625795 37.14920044 67.86227417 C37.5935362 70.37686703 38.02692705 72.89309537 38.45703125 75.41015625 C38.58992554 76.15309433 38.72281982 76.89603241 38.85974121 77.66148376 C39.94583601 84.16245928 39.94583601 84.16245928 38.609375 87.29296875 C36.83203125 88.77734375 36.83203125 88.77734375 34.671875 90.04296875 C33.96160156 90.4709375 33.25132812 90.89890625 32.51953125 91.33984375 C30.609375 92.29296875 30.609375 92.29296875 28.609375 92.29296875 C24.39295788 83.97174554 20.27113508 75.61214138 16.26171875 67.18896484 C11.36257597 56.89731931 6.29572096 46.73708669 0.93359375 36.6796875 C-1.38212042 32.3313231 -3.6218671 27.94775955 -5.828125 23.54296875 C-6.14620117 22.91124756 -6.46427734 22.27952637 -6.79199219 21.62866211 C-12.41106294 10.35574164 -12.41106294 10.35574164 -12.328125 6.04296875 C-10.22546463 -0.12483501 -5.93874617 -0.07069936 0 0 Z " fill="#FCFCFC" transform="translate(198.390625,197.70703125)"/>
<path d="M0 0 C4.46567763 -0.09917794 8.93076507 -0.17161225 13.3972168 -0.21972656 C14.9152341 -0.23979203 16.43317459 -0.26705134 17.95092773 -0.30175781 C20.13805122 -0.35050393 22.32414952 -0.37301805 24.51171875 -0.390625 C25.82615967 -0.41157227 27.14060059 -0.43251953 28.49487305 -0.45410156 C32.5411181 0.07010376 34.17583623 1.11053934 37 4 C38.20474678 10.06510474 34.88299433 15.97372216 31.9375 21.0625 C31.10774011 22.56159624 30.27964909 24.06161728 29.453125 25.5625 C29.03740234 26.30886719 28.62167969 27.05523437 28.19335938 27.82421875 C26.43645828 31.02747215 24.80482662 34.28710591 23.1875 37.5625 C22.53265018 38.88286116 21.87769785 40.20317148 21.22265625 41.5234375 C20.69889404 42.58062988 20.69889404 42.58062988 20.16455078 43.65917969 C18.84545374 46.3106477 17.51512093 48.95631527 16.18359375 51.6015625 C9.61878958 64.65598111 3.2190128 77.77729358 -3 91 C-8.04250428 91 -9.77905653 89.59750368 -14 87 C-13.46594706 76.67452907 -11.88649567 66.69604402 -10.05859375 56.54296875 C-9.76801101 54.90254768 -9.47798707 53.26202753 -9.18849182 51.62141418 C-8.43288147 47.34786685 -7.66979543 43.07568899 -6.9050293 38.80377197 C-6.12283317 34.42663922 -5.3478739 30.04822586 -4.57226562 25.66992188 C-3.05517102 17.11202709 -1.53015937 8.55556841 0 0 Z " fill="#FCFCFC" transform="translate(276,198)"/>
<path d="M0 0 C2.48367948 2.07643649 4.24355257 4.29363713 6 7 C6.928125 8.3303125 6.928125 8.3303125 7.875 9.6875 C10.00248485 15.95176095 10.21636471 23.09011219 7.5625 29.25 C4.64324358 34.24098678 -0.39678859 39.6599627 -5.890625 41.703125 C-13.16432096 42.72683036 -20.8210532 43.22295102 -27.2890625 39.3203125 C-33.18089624 34.77364628 -36.71795269 29.37781944 -38 22 C-38.52286977 14.20675062 -35.91071999 7.99832912 -31 2 C-28.6931095 0.12406707 -26.7813829 -0.78630564 -24 -2 C-22.7934375 -2.61875 -22.7934375 -2.61875 -21.5625 -3.25 C-13.9467298 -5.47900591 -6.89188097 -3.5934731 0 0 Z " fill="#FCFCFC" transform="translate(264,303)"/>
<path d="M0 0 C0.76171509 -0.0038269 1.52343018 -0.00765381 2.30822754 -0.01159668 C3.91529668 -0.01431313 5.52241024 -0.00697044 7.12939453 0.00976562 C9.58596587 0.03118214 12.03961311 0.00995822 14.49609375 -0.015625 C16.05990227 -0.01298167 17.62370898 -0.00785658 19.1875 0 C20.28608337 -0.01214539 20.28608337 -0.01214539 21.40686035 -0.02453613 C24.85088627 0.03862553 26.76462971 0.28421372 29.55273438 2.37695312 C31.09375 4.53125 31.09375 4.53125 31.65625 7.53125 C31.09375 10.53125 31.09375 10.53125 29.02929688 12.68554688 C25.46584571 14.92604012 22.64359749 15.11107011 18.5625 15.0625 C17.84896362 15.0663269 17.13542725 15.07015381 16.40026855 15.07409668 C14.89752789 15.07680847 13.39473944 15.06949854 11.89208984 15.05273438 C9.60016013 15.03130992 7.31136421 15.05255639 5.01953125 15.078125 C3.55468063 15.07548159 2.08983194 15.07035632 0.625 15.0625 C-0.39551453 15.07464539 -0.39551453 15.07464539 -1.43664551 15.08703613 C-4.93258704 15.01860829 -6.85706363 14.56217556 -9.84179688 12.68554688 C-11.90625 10.53125 -11.90625 10.53125 -12.46875 7.53125 C-11.14361671 0.46387244 -6.34983495 -0.07020058 0 0 Z " fill="#FAFAFA" transform="translate(322.90625,247.46875)"/>
<path d="M0 0 C0.73951904 -0.00524185 1.47903809 -0.0104837 2.2409668 -0.0158844 C3.80093126 -0.02229372 5.36094413 -0.02098167 6.92089844 -0.01245117 C9.30491231 -0.00393336 11.68653477 -0.03272517 14.0703125 -0.06445312 C15.58854095 -0.06606515 17.10677363 -0.06548758 18.625 -0.0625 C19.33551514 -0.07373398 20.04603027 -0.08496796 20.77807617 -0.09654236 C24.17858034 -0.04875163 26.01543067 0.21117549 28.76953125 2.27319336 C30.83709156 5.16810493 30.75727075 6.94955617 30.3125 10.43359375 C28.3125 13.43359375 28.3125 13.43359375 25.3125 14.43359375 C20.7551795 14.63953327 16.19544475 14.61939473 11.6340332 14.61889648 C9.38668872 14.62108238 7.13983576 14.63924827 4.89257812 14.65820312 C3.46093917 14.66113745 2.0292979 14.66312198 0.59765625 14.6640625 C-1.35321899 14.67022583 -1.35321899 14.67022583 -3.34350586 14.67651367 C-6.44858391 14.45094949 -8.15537477 14.18334883 -10.6875 12.43359375 C-12.22913175 9.35033025 -11.98497535 6.82481276 -11.6875 3.43359375 C-8.39110422 -0.1979844 -4.60071216 -0.01900878 0 0 Z " fill="#F9F9FA" transform="translate(157.6875,247.56640625)"/>
<path d="M0 0 C2.24610334 2.43327862 1.9997539 4.0233245 1.96484375 7.33203125 C0.64932929 12.33311659 -1.6415879 13.52549097 -5.9375 16.0625 C-6.61611084 16.48515137 -7.29472168 16.90780273 -7.99389648 17.34326172 C-9.35553841 18.18757327 -10.72309596 19.02242652 -12.09667969 19.84716797 C-13.75641184 20.85245981 -15.38520644 21.90847955 -17.0078125 22.97265625 C-20.52715831 25.24893038 -23.22930884 26.85727942 -27.375 27.625 C-30.77541209 26.81537807 -32.02582689 25.88532993 -34 23 C-34.5625 20.0625 -34.5625 20.0625 -34 17 C-28.95339726 11.2547783 -22.49786544 7.83543839 -16 4 C-15.14148438 3.45214844 -14.28296875 2.90429688 -13.3984375 2.33984375 C-8.66024179 -0.58285772 -5.5890655 -1.93906354 0 0 Z " fill="#FAFAFA" transform="translate(197,277)"/>
<path d="M0 0 C2.57833961 1.26338641 4.85289873 2.52289586 7.25 4.0625 C8.22972778 4.67279053 8.22972778 4.67279053 9.22924805 5.29541016 C24.08711662 14.63067493 24.08711662 14.63067493 27 19 C26.86059549 22.34570822 26.55674509 24.30963609 24.4375 26.9375 C20.72142712 28.55732664 17.73924906 28.2657907 14 27 C11.41582561 25.47435144 9.06014036 23.77898739 6.6640625 21.97265625 C3.0410966 19.28996156 -0.79401174 17.00188357 -4.65234375 14.67578125 C-7.04922747 12.96486093 -8.50247396 11.52738614 -10 9 C-9.87177883 5.85858144 -9.4995896 3.78882568 -7.8125 1.125 C-5.06298262 -0.58159699 -3.20897805 -0.31151483 0 0 Z " fill="#F9F9FA" transform="translate(310,276)"/>
<path d="M0 0 C4.15208249 0.7626274 5.62045207 2.15843318 8.0625 5.5625 C7.69899611 12.82248049 3.17355083 17.87377653 -0.9375 23.5625 C-1.47117187 24.34367187 -2.00484375 25.12484375 -2.5546875 25.9296875 C-4 27.875 -4 27.875 -6.9375 30.5625 C-10.89539178 30.76374873 -12.85295786 30.44369049 -15.9375 27.9375 C-17.4006481 24.46252326 -16.73955792 22.22636083 -15.9375 18.5625 C-14.71982683 16.00765274 -13.21697571 13.71074676 -11.625 11.375 C-11.23376953 10.77236328 -10.84253906 10.16972656 -10.43945312 9.54882812 C-4.71684211 0.90322509 -4.71684211 0.90322509 0 0 Z " fill="#F9F9F9" transform="translate(287.9375,154.4375)"/>
<path d="M0 0 C3.99315662 3.51684873 6.93053017 7.45374178 9.8125 11.875 C10.42254883 12.75478516 10.42254883 12.75478516 11.04492188 13.65234375 C13.82917914 17.91061957 14.52775462 20.95839117 14 26 C12.40393605 28.66010658 11.07023371 28.97557088 8.125 30 C5 30 5 30 2.63671875 27.96484375 C-0.309983 24.65144134 -2.84034728 21.23593582 -5.3125 17.5625 C-5.76689453 16.91990234 -6.22128906 16.27730469 -6.68945312 15.61523438 C-9.36986194 11.64500478 -10.73001226 8.95107323 -10 4 C-7.2247536 -0.05612936 -4.80517165 -0.88258255 0 0 Z " fill="#FAFAFA" transform="translate(214,155)"/>
<path d="M0 0 C2.97870281 1.22203192 4.39010514 2.51676303 6.4375 5 C6.95507812 7.59375 6.95507812 7.59375 6.96875 10.5 C6.97390625 11.551875 6.9790625 12.60375 6.984375 13.6875 C6.96890625 14.780625 6.9534375 15.87375 6.9375 17 C6.95296875 18.093125 6.9684375 19.18625 6.984375 20.3125 C6.97921875 21.364375 6.9740625 22.41625 6.96875 23.5 C6.96423828 24.4590625 6.95972656 25.418125 6.95507812 26.40625 C6.29095345 29.73439177 5.08221197 30.93314441 2.4375 33 C-0.87466037 33.48302339 -2.75810455 33.43445567 -5.71459961 31.83764648 C-8.90580671 28.66414724 -8.12198855 24.97967289 -8.15820312 20.68945312 C-8.14724609 19.49255859 -8.13628906 18.29566406 -8.125 17.0625 C-8.14884766 15.86947266 -8.17269531 14.67644531 -8.19726562 13.44726562 C-8.19533203 12.30064453 -8.19339844 11.15402344 -8.19140625 9.97265625 C-8.19213135 8.92343994 -8.19285645 7.87422363 -8.19360352 6.79321289 C-7.5625 4 -7.5625 4 -5.18334961 1.62670898 C-2.5625 0 -2.5625 0 0 0 Z " fill="#FBFBFB" transform="translate(250.5625,147)"/>
<path d="M0 0 C1.65 0.99 3.3 1.98 5 3 C3.02 5.31 1.04 7.62 -1 10 C-2.16553292 6.50340123 -1.77297578 4.55568859 -1 1 C-0.67 0.67 -0.34 0.34 0 0 Z " fill="#252A2E" transform="translate(147,144)"/>
<path d="M0 0 C0.99 0.33 1.98 0.66 3 1 C3 1.66 3 2.32 3 3 C2.34 3 1.68 3 1 3 C0.731875 3.598125 0.46375 4.19625 0.1875 4.8125 C-0.98493467 6.97224808 -2.19369282 8.35790256 -4 10 C-4.66 9.67 -5.32 9.34 -6 9 C-4.02 6.03 -2.04 3.06 0 0 Z " fill="#1B1E21" transform="translate(371,324)"/>
<path d="M0 0 C0.66 1.32 1.32 2.64 2 4 C0.37660195 5.70884005 -1.29319053 7.37446717 -3 9 C-3.66 9 -4.32 9 -5 9 C-3.7508258 5.54074837 -2.32472205 2.85306797 0 0 Z " fill="#202225" transform="translate(146,179)"/>
<path d="M0 0 C0 3.20395416 -0.74335022 5.09399739 -2 8 C-2.99 7.34 -3.98 6.68 -5 6 C-5 5.01 -5 4.02 -5 3 C-2.5 1.3125 -2.5 1.3125 0 0 Z " fill="#1E2023" transform="translate(184,142)"/>
<path d="M0 0 C1 4 1 4 0.00390625 5.921875 C-0.47175781 6.52515625 -0.94742188 7.1284375 -1.4375 7.75 C-1.91058594 8.36359375 -2.38367188 8.9771875 -2.87109375 9.609375 C-3.24363281 10.06828125 -3.61617188 10.5271875 -4 11 C-4.66 10.67 -5.32 10.34 -6 10 C-4.02 6.7 -2.04 3.4 0 0 Z " fill="#232729" transform="translate(112,163)"/>
<path d="M0 0 C2.625 0.625 2.625 0.625 5 2 C5.33 3.32 5.66 4.64 6 6 C1.545 4.02 1.545 4.02 -3 2 C-2.01 1.34 -1.02 0.68 0 0 Z " fill="#1A1E20" transform="translate(302,114)"/>
<path d="M0 0 C1.875 1.25 1.875 1.25 2.875 4.25 C-0.0969385 3.12548273 -2.45940687 2.02706209 -5.125 0.25 C-2.125 -0.75 -2.125 -0.75 0 0 Z " fill="#1F2326" transform="translate(199.125,363.75)"/>
<path d="M0 0 C0.66 0.33 1.32 0.66 2 1 C2 2.98 2 4.96 2 7 C0.68 6.34 -0.64 5.68 -2 5 C-1.34 3.35 -0.68 1.7 0 0 Z " fill="#1C2123" transform="translate(309,193)"/>
<path d="M0 0 C0.66 0.33 1.32 0.66 2 1 C1.67 2.32 1.34 3.64 1 5 C-0.65 5.33 -2.3 5.66 -4 6 C-2.68 4.02 -1.36 2.04 0 0 Z " fill="#242729" transform="translate(151,172)"/>
</svg>
