<svg xmlns="http://www.w3.org/2000/svg" version="1.0" preserveAspectRatio="xMidYMid meet" viewBox="2 1.34 478.8 485.56">

<g transform="translate(0.000000,487.000000) scale(0.100000,-0.100000)" fill="#000000" stroke="none">
<path d="M2235 4854 c-219 -23 -372 -51 -535 -101 -63 -19 -116 -36 -117 -37 -2 -1 18 -58 43 -125 25 -68 44 -125 42 -126 -2 -1 -39 -17 -83 -34 -150 -60 -366 -186 -504 -293 l-63 -50 -22 26 c-11 14 -48 59 -81 100 -33 41 -63 75 -66 75 -14 2 -216 -199 -290 -288 -184 -219 -353 -515 -442 -776 -46 -135 -104 -361 -95 -371 3 -3 63 -15 133 -26 119 -20 126 -23 121 -43 -28 -111 -33 -566 -7 -685 5 -25 8 -46 7 -47 -1 -1 -59 -13 -129 -25 -82 -15 -127 -27 -127 -35 0 -7 18 -83 40 -169 86 -336 246 -654 467 -929 84 -104 308 -329 322 -323 5 2 43 45 86 95 42 51 82 93 89 93 7 0 21 -10 32 -21 59 -65 407 -268 557 -324 26 -10 50 -21 52 -25 2 -4 -16 -60 -40 -126 -25 -65 -45 -120 -45 -121 0 -6 208 -66 305 -88 334 -75 761 -72 1101 9 93 23 254 76 254 85 0 4 -18 55 -40 114 -22 58 -40 112 -40 120 0 8 18 19 40 26 106 31 380 186 528 297 40 31 77 54 81 52 8 -3 108 -118 148 -170 l21 -28 124 123 c68 67 158 165 200 217 233 291 409 657 483 1001 l22 105 -125 22 c-68 12 -126 23 -129 26 -2 2 0 37 6 78 26 184 23 435 -5 634 l-6 41 43 7 c24 3 83 13 130 22 l87 16 -20 91 c-105 485 -372 951 -732 1276 -64 58 -82 69 -91 59 -7 -7 -45 -53 -85 -101 -64 -77 -75 -86 -90 -75 -9 7 -45 35 -80 61 -127 96 -341 216 -492 276 -32 13 -58 29 -58 36 0 7 18 61 40 120 22 59 40 111 40 115 0 19 -307 99 -480 125 -101 15 -443 27 -525 19z m345 -495 c875 -80 1589 -732 1741 -1589 26 -144 35 -400 20 -538 -65 -592 -377 -1103 -872 -1429 -330 -216 -722 -325 -1124 -310 -183 7 -300 25 -470 73 -215 62 -437 171 -620 306 -104 76 -350 328 -428 438 -89 126 -207 362 -256 513 -200 616 -87 1276 308 1792 65 85 223 247 311 318 394 318 896 472 1390 426z"/>
</g>
</svg>